<?xml version="1.0" encoding="UTF-8" standalone="no"?><!-- Generator: Gravit.io --><svg xmlns="http://www.w3.org/2000/svg" xmlns:xlink="http://www.w3.org/1999/xlink" style="isolation:isolate" viewBox="0 0 4767.874 6740.787" width="4767.874pt" height="6740.787pt"><defs><clipPath id="_clipPath_XT6XPDnV868RMFPlp5tFwr1t5odIEPyy"><rect width="4767.874" height="6740.787"/></clipPath></defs><g clip-path="url(#_clipPath_XT6XPDnV868RMFPlp5tFwr1t5odIEPyy)"><path d=" M 1975.008 1073.374 C 1956.095 1072.817 1945.877 1070.303 1932.073 1084.108 C 1918.809 1097.371 1913.806 1093.241 1910.605 1094.841 C 1899.669 1100.309 1887.113 1118.334 1878.404 1127.042 C 1849.884 1155.562 1836.144 1168.628 1824.735 1191.445 C 1788.829 1238.085 1816.532 1205.322 1803.268 1245.114 C 1795.097 1269.627 1781.8 1238.479 1781.8 1277.315 C 1781.8 1302.36 1781.8 1316.672 1781.8 1330.983 C 1781.8 1356.029 1781.8 1370.341 1781.8 1384.652 C 1781.8 1402.6 1778.633 1421.252 1781.8 1427.587 C 1784.063 1432.113 1792.534 1433.261 1792.534 1438.321 C 1792.534 1452.633 1791.403 1456.394 1792.534 1459.788 C 1818.451 1537.537 1789.44 1442.865 1814.002 1491.99 C 1815.602 1495.19 1810.424 1502.723 1814.002 1502.723 C 1847.071 1502.723 1829.054 1517.776 1835.469 1524.191 C 1837.999 1526.721 1843.673 1521.661 1846.203 1524.191 C 1851.86 1529.848 1851.279 1540.001 1856.937 1545.658 C 1867.67 1556.392 1889.138 1577.859 1889.138 1577.859 C 1892.338 1579.46 1896.671 1576.259 1899.872 1577.859 C 1904.397 1580.122 1906.08 1586.33 1910.605 1588.593 C 1935.273 1600.927 1929.543 1607.531 1932.073 1610.061 C 1934.603 1612.591 1939.606 1608.461 1942.807 1610.061 C 1947.332 1612.324 1949.015 1618.532 1953.54 1620.794 C 1956.74 1622.395 1961.744 1618.264 1964.274 1620.794 C 1977.538 1634.058 1982.541 1629.928 1985.742 1631.528 C 1990.267 1633.791 1991.95 1639.999 1996.475 1642.262 C 1999.675 1643.862 2004.009 1640.662 2007.209 1642.262 C 2011.735 1644.525 2012.883 1652.996 2017.943 1652.996 C 2042.988 1652.996 2057.3 1652.996 2071.611 1652.996 C 2082.345 1652.996 2136.014 1652.996 2136.014 1652.996 C 2182.347 1606.663 2136.628 1647.322 2168.215 1631.528 C 2172.741 1629.265 2174.739 1623.601 2178.949 1620.794 C 2185.606 1616.357 2194.759 1615.718 2200.416 1610.061 C 2213.68 1596.797 2219.354 1601.857 2221.884 1599.327 C 2244.092 1577.118 2187.946 1600.195 2232.617 1577.859 C 2235.818 1576.259 2240.821 1580.389 2243.351 1577.859 C 2256.615 1564.596 2252.485 1559.592 2254.085 1556.392 C 2254.085 1556.392 2275.552 1534.925 2275.552 1534.925 C 2277.153 1531.724 2273.022 1526.721 2275.552 1524.191 C 2321.885 1477.858 2281.226 1523.577 2297.02 1491.99 C 2310.284 1465.462 2307.754 1495.695 2307.754 1470.522 C 2307.754 1443.995 2316.225 1442.847 2318.487 1438.321 C 2321.655 1431.986 2318.487 1413.334 2318.487 1406.12 C 2318.487 1377.496 2318.487 1359.607 2318.487 1341.717 C 2318.487 1323.769 2321.655 1305.117 2318.487 1298.782 C 2316.225 1294.257 2307.754 1293.108 2307.754 1288.049 C 2307.754 1272.255 2299.283 1271.107 2297.02 1266.581 C 2279.953 1232.448 2314.087 1279.247 2297.02 1245.114 C 2294.757 1240.588 2289.864 1237.958 2286.286 1234.38 C 2273.022 1221.116 2277.153 1216.113 2275.552 1212.912 C 2263.686 1189.179 2268.891 1209.581 2254.085 1202.179 C 2249.559 1199.916 2246.929 1195.023 2243.351 1191.445 C 2229.04 1177.133 2226.409 1172.24 2221.884 1169.977 C 2221.884 1169.977 2200.416 1169.977 2200.416 1169.977 C 2197.886 1167.447 2203.994 1159.244 2200.416 1159.244 C 2161.059 1159.244 2193.26 1162.822 2178.949 1148.51 C 2178.949 1148.51 2157.481 1148.51 2157.481 1148.51 C 2157.481 1134.198 2149.948 1139.376 2146.748 1137.776 C 2142.222 1135.513 2140.54 1129.305 2136.014 1127.042 C 2132.814 1125.442 2127.81 1129.572 2125.28 1127.042 C 2122.75 1124.513 2128.858 1116.309 2125.28 1116.309 C 2085.923 1116.309 2118.124 1119.887 2103.813 1105.575 C 2103.813 1105.575 2082.345 1105.575 2082.345 1105.575 C 2071.611 1105.575 2050.144 1105.575 2050.144 1105.575 C 2023.617 1092.311 2053.849 1094.841 2028.676 1094.841 C 2003.631 1094.841 1989.319 1094.841 1975.008 1094.841 C 1964.274 1094.841 1921.339 1094.841 1921.339 1094.841 L 1975.008 1073.374 Z " fill="rgb(255,255,255)" vector-effect="non-scaling-stroke" stroke-width="1" stroke="rgb(0,0,0)" stroke-linejoin="miter" stroke-linecap="square" stroke-miterlimit="3"/><path d=" M 2962.512 1127.042 C 2966.09 1127.042 2955.356 1127.042 2951.778 1127.042 C 2933.888 1127.042 2915.999 1127.042 2898.109 1127.042 C 2890.953 1127.042 2883.798 1127.042 2876.642 1127.042 C 2819.395 1127.042 2783.616 1127.042 2747.837 1127.042 C 2732.043 1127.042 2730.895 1135.513 2726.369 1137.776 C 2726.369 1137.776 2704.902 1137.776 2704.902 1137.776 C 2702.372 1140.306 2707.432 1145.98 2704.902 1148.51 C 2691.638 1161.774 2686.635 1157.644 2683.434 1159.244 C 2676.279 1162.822 2654.811 1184.289 2651.233 1191.445 C 2636.922 1220.068 2634.204 1227.723 2629.766 1234.38 C 2626.959 1238.59 2620.632 1240.313 2619.032 1245.114 C 2610.53 1270.621 2631.738 1264.609 2608.298 1288.049 C 2595.035 1301.312 2599.165 1306.316 2597.565 1309.516 C 2595.302 1314.042 2589.094 1315.724 2586.831 1320.25 C 2585.231 1323.45 2586.831 1327.406 2586.831 1330.983 C 2586.831 1334.561 2588.431 1338.517 2586.831 1341.717 C 2572.622 1370.135 2576.097 1424.069 2576.097 1438.321 C 2576.097 1495.567 2576.097 1520.613 2576.097 1545.658 C 2576.097 1556.544 2596.981 1609.186 2597.565 1610.061 C 2600.371 1614.271 2606.035 1616.269 2608.298 1620.794 C 2622.61 1649.418 2633.843 1648.558 2640.5 1652.996 C 2640.5 1652.996 2661.967 1674.463 2661.967 1674.463 C 2665.167 1676.063 2669.501 1672.863 2672.701 1674.463 C 2697.368 1686.797 2701.702 1683.597 2704.902 1685.197 C 2736.489 1700.991 2688.24 1695.931 2737.103 1695.931 C 2744.259 1695.931 2751.415 1695.931 2758.571 1695.931 C 2790.772 1695.931 2812.239 1695.931 2833.707 1695.931 C 2869.613 1695.931 2839.381 1698.461 2865.908 1685.197 C 2897.495 1669.403 2851.776 1710.062 2887.375 1674.463 C 2910.441 1651.397 2933.179 1647.259 2941.044 1631.528 C 2942.644 1628.328 2938.514 1623.324 2941.044 1620.794 C 2951.778 1610.061 2973.245 1588.593 2973.245 1588.593 C 2974.845 1585.393 2971.645 1581.06 2973.245 1577.859 C 2975.508 1573.334 2983.979 1572.186 2983.979 1567.126 C 2983.979 1548.392 2992.183 1542.514 2994.713 1534.925 C 2997.933 1525.264 2991.493 1512.384 2994.713 1502.723 C 2996.313 1497.923 3005.447 1497.05 3005.447 1491.99 C 3005.447 1440.756 3003.847 1487.656 3016.18 1438.321 C 3016.18 1438.321 3016.18 1395.386 3016.18 1395.386 C 3016.18 1379.592 3025.314 1378.719 3026.914 1373.918 C 3030.072 1364.443 3026.914 1342.26 3026.914 1330.983 C 3026.914 1295.204 3026.914 1280.893 3026.914 1266.581 C 3026.914 1259.425 3021.854 1250.174 3026.914 1245.114 C 3042.708 1229.32 3037.648 1220.068 3037.648 1212.912 C 3037.648 1202.179 3037.648 1191.445 3037.648 1180.711 C 3037.648 1169.977 3037.648 1148.51 3037.648 1148.51 C 3037.648 1148.51 3037.648 1169.977 3037.648 1169.977 C 3037.648 1185.771 3046.119 1186.919 3048.382 1191.445 C 3054.106 1202.894 3042.657 1222.931 3048.382 1234.38 C 3059.115 1255.847 3059.115 1277.315 3059.115 1277.315 C 3059.115 1277.315 3059.115 1320.25 3059.115 1320.25 C 3069.849 1341.717 3069.849 1438.321 3069.849 1438.321 C 3069.849 1470.522 3069.849 1524.191 3069.849 1524.191 C 3072.112 1528.717 3080.583 1529.865 3080.583 1534.925 C 3080.583 1580.642 3078.983 1551.592 3091.317 1588.593 C 3091.317 1588.593 3091.317 1610.061 3091.317 1610.061 C 3110.759 1629.503 3123.315 1647.528 3134.251 1652.996 C 3137.452 1654.596 3142.455 1650.466 3144.985 1652.996 C 3160.779 1668.789 3170.244 1661.994 3177.186 1663.729 C 3184.948 1665.67 3191.064 1671.933 3198.654 1674.463 C 3198.654 1674.463 3220.121 1674.463 3220.121 1674.463 C 3245.167 1674.463 3241.589 1670.885 3241.589 1685.197" fill="none" vector-effect="non-scaling-stroke" stroke-width="1" stroke="rgb(0,0,0)" stroke-linejoin="miter" stroke-linecap="square" stroke-miterlimit="3"/><path d=" M 3767.542 1073.374 C 3771.12 1084.108 3765.86 1047.961 3756.808 1041.173 C 3750.842 1036.698 3698.838 1041.173 3681.672 1041.173 C 3617.521 1041.173 3588.15 1038.091 3563.601 1062.64 C 3549.289 1076.952 3546.659 1081.845 3542.134 1084.108 C 3538.933 1085.708 3533.93 1081.578 3531.4 1084.108 C 3528.87 1086.637 3533 1091.641 3531.4 1094.841 C 3529.137 1099.367 3520.666 1100.515 3520.666 1105.575 C 3520.666 1121.369 3512.195 1122.517 3509.932 1127.042 C 3477.98 1190.948 3582.98 1033.571 3499.199 1159.244 C 3496.392 1163.454 3490.728 1165.452 3488.465 1169.977 C 3476.131 1194.645 3479.331 1198.978 3477.731 1202.179 C 3464.467 1228.706 3466.997 1198.474 3466.997 1223.646 C 3466.997 1227.224 3466.997 1230.802 3466.997 1234.38 C 3466.997 1266.581 3466.997 1288.049 3466.997 1309.516 C 3466.997 1320.25 3466.997 1406.12 3466.997 1406.12 C 3480.931 1433.988 3475.468 1442.266 3477.731 1449.055 C 3488.642 1459.966 3494.866 1463.927 3499.199 1481.256 C 3500.934 1488.198 3495.998 1496.323 3499.199 1502.723 C 3512.195 1528.717 3519.066 1530.124 3520.666 1534.925 C 3520.666 1606.123 3515.606 1519.745 3531.4 1567.126 C 3533.663 1573.914 3526.34 1583.533 3531.4 1588.593 C 3547.193 1604.387 3538.933 1614.394 3542.134 1620.794 C 3543.734 1623.995 3550.337 1618.264 3552.867 1620.794 C 3555.397 1623.324 3551.267 1628.328 3552.867 1631.528 C 3555.13 1636.054 3563.601 1637.202 3563.601 1642.262 C 3563.601 1656.574 3571.135 1651.396 3574.335 1652.996 C 3574.335 1652.996 3595.802 1674.463 3595.802 1674.463 C 3602.591 1676.726 3610.114 1674.463 3617.27 1674.463 C 3673.289 1674.463 3620.414 1671.933 3660.205 1685.197 C 3660.205 1685.197 3703.14 1685.197 3703.14 1685.197 C 3738.919 1685.197 3763.964 1685.197 3789.009 1685.197 C 3831.944 1685.197 3853.412 1685.197 3874.879 1685.197 C 3885.613 1685.197 3907.081 1663.729 3907.081 1663.729 C 3907.081 1663.729 3928.548 1663.729 3928.548 1663.729 C 3939.282 1652.996 3960.749 1631.528 3960.749 1631.528 C 3965.187 1624.871 3968.953 1617.651 3971.483 1610.061 C 3972.614 1606.666 3968.953 1601.857 3971.483 1599.327 C 3984.747 1586.063 3980.617 1581.06 3982.217 1577.859 C 3984.48 1573.334 3991.35 1571.926 3992.95 1567.126 C 3995.213 1560.337 3990.688 1552.447 3992.95 1545.658 C 3994.551 1540.858 4003.684 1539.984 4003.684 1534.925 C 4003.684 1499.941 4002.084 1528.991 4014.418 1491.99 C 4015.549 1488.595 4013.287 1484.65 4014.418 1481.256 C 4016.948 1473.666 4025.152 1467.789 4025.152 1459.788 C 4025.152 1413.275 4025.152 1388.23 4025.152 1363.185 C 4025.152 1309.516 4025.152 1277.315 4025.152 1245.114 C 4025.152 1234.38 4025.152 1191.445 4025.152 1191.445 C 4022.622 1188.915 4014.418 1195.023 4014.418 1191.445 C 4014.418 1175.651 4008.21 1172.24 4003.684 1169.977 C 3988.879 1162.575 3994.083 1182.977 3982.217 1159.244 C 3980.617 1156.044 3985.795 1148.51 3982.217 1148.51 C 3967.905 1148.51 3974.013 1140.306 3971.483 1137.776 C 3968.953 1135.246 3963.949 1139.376 3960.749 1137.776 C 3956.224 1135.513 3954.541 1129.305 3950.016 1127.042 C 3946.815 1125.442 3939.282 1130.62 3939.282 1127.042 C 3939.282 1112.665 3910.823 1085.979 3907.081 1084.108 C 3903.88 1082.507 3896.347 1087.685 3896.347 1084.108 C 3896.347 1069.796 3888.143 1075.904 3885.613 1073.374 C 3883.083 1070.844 3888.143 1065.17 3885.613 1062.64 C 3883.083 1060.11 3877.409 1065.17 3874.879 1062.64 C 3872.349 1060.11 3878.457 1051.906 3874.879 1051.906 C 3864.146 1051.906 3842.678 1051.906 3842.678 1051.906 C 3828.367 1037.595 3860.568 1041.173 3831.944 1041.173 C 3814.661 1041.173 3782.458 1045.355 3778.276 1041.173 C 3767.542 1030.439 3713.873 1030.439 3713.873 1030.439 C 3706.112 1028.498 3699.996 1022.235 3692.406 1019.705 L 3660.205 1008.971 L 3767.542 1073.374 Z " fill="rgb(255,255,255)" vector-effect="non-scaling-stroke" stroke-width="1" stroke="rgb(0,0,0)" stroke-linejoin="miter" stroke-linecap="square" stroke-miterlimit="3"/><path d=" M 2833.707 837.232 C 2843.827 832.172 2809.506 834.498 2801.506 826.498 C 2796.446 821.438 2801.506 812.186 2801.506 805.03 C 2801.506 790.719 2801.506 776.407 2801.506 762.095 C 2813.839 737.428 2819.773 742.228 2822.973 740.628 C 2842.004 731.112 2851.184 697.693 2876.642 697.693 C 2895.376 697.693 2901.081 688.9 2908.843 686.959 C 2957.088 674.898 2898.577 713.56 2973.245 676.225 C 2976.446 674.625 2969.667 665.492 2973.245 665.492 C 3016.18 665.492 3037.648 665.492 3059.115 665.492 C 3069.849 665.492 3123.518 665.492 3123.518 665.492 C 3176.573 692.019 3130.853 651.36 3166.453 686.959 C 3170.031 690.537 3172.661 695.43 3177.186 697.693 C 3180.387 699.293 3185.39 695.163 3187.92 697.693 C 3223.826 733.599 3191.064 705.897 3230.855 719.16 C 3235.655 720.761 3237.063 727.631 3241.589 729.894 C 3244.789 731.494 3249.793 727.364 3252.323 729.894 C 3275.138 752.71 3315.006 783.563 3316.725 783.563 C 3341.77 783.563 3356.082 783.563 3370.394 783.563 C 3399.017 783.563 3416.907 783.563 3434.796 783.563 C 3474.153 783.563 3492.043 783.563 3509.932 783.563 C 3548.65 783.563 3573.269 751.362 3585.068 751.362 C 3600.862 751.362 3602.01 742.891 3606.536 740.628 C 3609.736 739.028 3614.069 742.228 3617.27 740.628 C 3617.27 740.628 3638.737 719.16 3638.737 719.16 C 3654.531 719.16 3657.942 712.952 3660.205 708.427 C 3661.805 705.227 3658.605 700.893 3660.205 697.693 C 3662.467 693.167 3668.675 691.485 3670.938 686.959 C 3672.538 683.759 3667.36 676.225 3670.938 676.225 L 3681.672 676.225 L 3681.672 665.492" fill="none" vector-effect="non-scaling-stroke" stroke-width="1" stroke="rgb(0,0,0)" stroke-linejoin="miter" stroke-linecap="square" stroke-miterlimit="3"/><path d=" M 633.291 4433.034 C 636.868 4429.456 622.557 4438.708 622.557 4443.767 C 622.557 4448.827 629.713 4450.923 633.291 4454.501 C 644.024 4465.235 652.861 4478.282 665.492 4486.702 C 674.906 4492.979 686.959 4493.858 697.693 4497.436 C 744.206 4497.436 779.985 4497.436 815.764 4497.436 C 934.371 4497.436 854.275 4511.119 890.9 4486.702 C 897.557 4482.265 906.711 4481.626 912.368 4475.969 C 947.712 4440.624 916.313 4469.761 955.303 4443.767 C 979.962 4427.328 950.7 4437.636 976.77 4411.566 C 992.564 4395.773 985.768 4386.307 987.504 4379.365 C 989.444 4371.603 996.297 4365.659 998.238 4357.898 C 999.973 4350.955 996.502 4343.372 998.238 4336.43 C 1000.178 4328.669 1008.971 4322.963 1008.971 4314.963 C 1008.971 4279.184 1008.971 4254.138 1008.971 4229.093 C 1008.971 4146.801 1008.971 4096.71 1008.971 4046.619 C 1008.971 3929.17 1012.442 4013.777 998.238 3928.548 C 998.238 3928.548 998.238 3885.613 998.238 3885.613 C 998.238 3845.411 989.444 3839.706 987.504 3831.944 C 982.931 3813.653 987.504 3786.469 987.504 3767.542 C 987.504 3692.406 987.504 3649.471 987.504 3606.536 C 987.504 3531.4 987.504 3499.199 987.504 3466.997 L 987.504 3445.53 L 987.504 3434.796" fill="none" vector-effect="non-scaling-stroke" stroke-width="1" stroke="rgb(0,0,0)" stroke-linejoin="miter" stroke-linecap="square" stroke-miterlimit="3"/><path d=" M 525.953 3606.536 C 525.953 3624.425 525.953 3570.757 525.953 3552.867 C 525.953 3545.711 525.953 3538.556 525.953 3531.4 C 525.953 3520.666 525.953 3509.932 525.953 3499.199 C 525.953 3484.887 525.953 3470.575 525.953 3456.264 C 525.953 3399.29 515.566 3337.846 536.687 3316.725 C 558.154 3295.258 579.622 3273.79 579.622 3273.79 C 586.279 3269.352 594.433 3267.494 601.089 3263.056 C 605.299 3260.25 607.297 3254.585 611.823 3252.323 C 639.691 3238.389 647.816 3243.324 654.758 3241.589 C 685.287 3233.957 670.253 3220.121 708.427 3220.121 C 751.362 3220.121 772.829 3220.121 794.297 3220.121 C 815.764 3220.121 847.965 3220.121 847.965 3220.121 C 852.766 3221.721 854.173 3228.592 858.699 3230.855 C 861.899 3232.455 866.903 3228.325 869.433 3230.855 C 883.744 3245.167 886.375 3250.06 890.9 3252.323 C 922.488 3268.116 876.768 3227.457 912.368 3263.056 C 915.946 3266.634 919.524 3270.212 923.101 3273.79 C 938.895 3289.584 948.514 3282.261 955.303 3284.524 C 960.103 3286.124 961.826 3292.451 966.036 3295.258 C 972.693 3299.695 980.847 3301.553 987.504 3305.991 C 991.714 3308.798 993.178 3316.725 998.238 3316.725 C 1024.765 3316.725 1026.229 3324.652 1030.439 3327.459 C 1037.096 3331.897 1044.316 3335.663 1051.906 3338.192 C 1055.301 3339.324 1059.246 3337.061 1062.64 3338.192 C 1070.23 3340.722 1076.107 3348.926 1084.108 3348.926 C 1123.465 3348.926 1152.088 3348.926 1180.711 3348.926 C 1228.604 3348.926 1231.582 3350.325 1255.847 3338.192 C 1263.003 3334.615 1271.658 3333.116 1277.315 3327.459 C 1301.312 3303.461 1306.122 3307.123 1309.516 3305.991 C 1317.106 3303.461 1325.326 3300.915 1330.983 3295.258 C 1373.918 3252.323 1305.938 3291.68 1363.185 3263.056 C 1399.688 3244.805 1415.601 3221.374 1427.587 3209.388 C 1441.899 3195.076 1446.792 3192.446 1449.055 3187.92 C 1450.655 3184.72 1446.525 3179.716 1449.055 3177.186 C 1451.585 3174.656 1456.588 3178.787 1459.788 3177.186 C 1464.314 3174.924 1466.944 3170.031 1470.522 3166.453 C 1495.567 3141.407 1491.99 3173.609 1491.99 3144.985" fill="none" vector-effect="non-scaling-stroke" stroke-width="1" stroke="rgb(0,0,0)" stroke-linejoin="miter" stroke-linecap="square" stroke-miterlimit="3"/><path d=" M 847.965 3928.548 C 847.965 3914.236 844.494 3957.599 847.965 3971.483 C 847.965 3971.483 901.634 3971.483 901.634 3971.483 C 940.991 3971.483 969.614 3971.483 998.238 3971.483 C 1008.971 3971.483 1062.64 3971.483 1062.64 3971.483 C 1065.17 3968.953 1059.062 3960.749 1062.64 3960.749 C 1087.685 3960.749 1091.641 3962.349 1094.841 3960.749 C 1094.841 3960.749 1116.309 3939.282 1116.309 3939.282 C 1119.509 3937.682 1125.442 3942.482 1127.042 3939.282 C 1139.003 3915.36 1201.761 3853.412 1202.179 3853.412 C 1212.912 3853.412 1234.38 3831.944 1234.38 3831.944" fill="none" vector-effect="non-scaling-stroke" stroke-width="1" stroke="rgb(0,0,0)" stroke-linejoin="miter" stroke-linecap="square" stroke-miterlimit="3"/><path d=" M 1524.191 4336.43 C 1524.191 4343.586 1524.191 4322.118 1524.191 4314.963 C 1524.191 4304.229 1524.191 4293.495 1524.191 4282.761 C 1524.191 4261.294 1524.191 4239.826 1524.191 4218.359 C 1524.191 4207.625 1524.191 4196.892 1524.191 4186.158 C 1524.191 4125.333 1524.191 4085.976 1524.191 4046.619 C 1524.191 4007.262 1524.191 3989.373 1524.191 3971.483 C 1524.191 3942.86 1524.191 3924.97 1524.191 3907.081 C 1524.191 3867.724 1524.191 3849.834 1524.191 3831.944 C 1524.191 3800.357 1541.133 3798.061 1545.658 3789.009 C 1548.858 3782.609 1543.395 3774.331 1545.658 3767.542 C 1545.658 3767.542 1567.126 3746.075 1567.126 3746.075 C 1604.157 3682.746 1574.348 3726.363 1599.327 3713.873 C 1603.853 3711.61 1605.26 3704.74 1610.061 3703.14 C 1616.849 3700.877 1626.468 3708.2 1631.528 3703.14 C 1649.852 3684.816 1663.938 3694.511 1674.463 3692.406 C 1682.308 3690.837 1688.341 3684.202 1695.931 3681.672 C 1695.931 3681.672 1728.132 3681.672 1728.132 3681.672 C 1738.866 3681.672 1760.333 3681.672 1760.333 3681.672 C 1776.127 3681.672 1768.537 3679.142 1781.8 3692.406 C 1828.134 3738.739 1787.474 3693.02 1803.268 3724.607 C 1803.268 3724.607 1824.735 3746.075 1824.735 3746.075 C 1824.735 3782.608 1823.604 3752.283 1835.469 3799.743 C 1835.469 3799.743 1835.469 3831.944 1835.469 3831.944 C 1835.469 3864.146 1835.469 3885.613 1835.469 3907.081 C 1835.469 3935.729 1803.47 3971.281 1792.534 3982.217 C 1788.956 3985.795 1785.378 3989.373 1781.8 3992.95 C 1725.11 4049.641 1776.17 4009.139 1728.132 4025.152 C 1723.332 4026.752 1722.458 4035.885 1717.398 4035.885 C 1701.604 4035.885 1700.456 4044.356 1695.931 4046.619 C 1689.596 4049.787 1670.944 4046.619 1663.729 4046.619 C 1652.996 4046.619 1685.197 4046.619 1685.197 4046.619 C 1692.958 4048.56 1699.074 4054.823 1706.664 4057.353 C 1710.059 4058.484 1713.82 4057.353 1717.398 4057.353 C 1731.71 4057.353 1725.602 4065.557 1728.132 4068.087 C 1730.662 4070.617 1735.665 4066.487 1738.866 4068.087 C 1743.391 4070.35 1745.074 4076.558 1749.599 4078.82 C 1752.799 4080.42 1760.333 4075.242 1760.333 4078.82 C 1760.333 4089.554 1781.8 4111.022 1781.8 4111.022 C 1783.401 4114.222 1780.669 4118.361 1781.8 4121.755 C 1784.33 4129.345 1792.534 4135.222 1792.534 4143.223 C 1792.534 4171.231 1814.128 4218.359 1824.735 4218.359 C 1839.047 4218.359 1832.939 4226.563 1835.469 4229.093 C 1835.469 4229.093 1856.937 4229.093 1856.937 4229.093 C 1861.462 4231.356 1864.092 4236.249 1867.67 4239.826 C 1881.982 4254.138 1886.875 4256.768 1889.138 4261.294 C 1895.017 4273.053 1883.084 4282.761 1910.605 4282.761 L 1921.339 4282.761 L 1921.339 4293.495" fill="none" vector-effect="non-scaling-stroke" stroke-width="1" stroke="rgb(0,0,0)" stroke-linejoin="miter" stroke-linecap="square" stroke-miterlimit="3"/><path d=" M 2468.76 3767.542 C 2472.338 3767.542 2471.29 3759.338 2468.76 3756.808 C 2468.76 3756.808 2393.624 3713.873 2393.624 3713.873 C 2386.677 3709.904 2379.312 3706.717 2372.156 3703.14 C 2329.221 3703.14 2297.02 3703.14 2264.819 3703.14 C 2238.291 3703.14 2237.143 3711.61 2232.617 3713.873 C 2206.181 3727.092 2242.307 3682.716 2200.416 3724.607 C 2194.759 3730.264 2195.34 3740.417 2189.683 3746.075 C 2169.074 3766.683 2154.476 3777.417 2146.748 3789.009 C 2142.31 3795.666 2141.671 3804.82 2136.014 3810.477 C 2083.389 3863.102 2127.765 3826.975 2114.546 3853.412 C 2101.283 3879.939 2103.813 3849.707 2103.813 3874.879 C 2103.813 3928.548 2103.813 3960.749 2103.813 3992.95 C 2103.813 4050.197 2103.813 4075.242 2103.813 4100.288 C 2103.813 4128.911 2101.55 4136.434 2103.813 4143.223 C 2105.413 4148.023 2111.74 4149.746 2114.546 4153.957 C 2118.984 4160.613 2122.75 4167.834 2125.28 4175.424 C 2126.412 4178.818 2122.75 4183.628 2125.28 4186.158 C 2164.534 4225.411 2177.6 4239.152 2200.416 4250.56 C 2235.713 4268.209 2271.873 4282.761 2286.286 4282.761 C 2297.02 4282.761 2350.689 4282.761 2350.689 4282.761 C 2355.214 4280.499 2356.362 4272.028 2361.422 4272.028 C 2388.423 4272.028 2422.969 4234.803 2425.825 4229.093 C 2438.159 4204.425 2434.958 4200.092 2436.559 4196.892 C 2452.925 4164.158 2445.068 4216.523 2458.026 4164.69 C 2459.762 4157.748 2454.826 4149.623 2458.026 4143.223 C 2471.023 4117.23 2477.231 4115.547 2479.493 4111.022 C 2479.493 4111.022 2479.493 4078.82 2479.493 4078.82 C 2481.094 4074.02 2490.227 4073.147 2490.227 4068.087 C 2490.227 4046.619 2511.695 4003.684 2511.695 4003.684 C 2511.695 4003.684 2511.695 3960.749 2511.695 3960.749 C 2511.695 3934.222 2520.828 3933.348 2522.428 3928.548 C 2522.428 3928.548 2522.428 3885.613 2522.428 3885.613 C 2524.647 3874.518 2533.162 3864.726 2533.162 3853.412 C 2533.162 3834.678 2541.366 3828.801 2543.896 3821.211 C 2543.896 3821.211 2543.896 3799.743 2543.896 3799.743 C 2540.318 3799.743 2543.896 3806.899 2543.896 3810.477 C 2543.896 3849.834 2543.896 3878.457 2543.896 3907.081 C 2543.896 3929.129 2553.03 3938.815 2554.63 3950.016 C 2554.63 3950.016 2554.63 4025.152 2554.63 4025.152 C 2556.199 4032.997 2565.363 4038.619 2565.363 4046.619 C 2565.363 4140.735 2563.963 4083.954 2576.097 4132.489 C 2577.833 4139.431 2573.834 4147.168 2576.097 4153.957 C 2587.962 4189.552 2585.699 4193.497 2586.831 4196.892 C 2593.329 4216.386 2596.017 4216.812 2608.298 4229.093 C 2611.876 4232.671 2615.454 4236.249 2619.032 4239.826 C 2632.296 4253.09 2628.166 4258.094 2629.766 4261.294 C 2635.761 4273.284 2649.439 4282.761 2661.967 4282.761 C 2701.324 4282.761 2719.214 4282.761 2737.103 4282.761" fill="none" vector-effect="non-scaling-stroke" stroke-width="1" stroke="rgb(0,0,0)" stroke-linejoin="miter" stroke-linecap="square" stroke-miterlimit="3"/><path d=" M 3252.323 3746.075 C 3249.793 3748.604 3245.097 3746.776 3241.589 3746.075 C 3227.123 3743.181 3212.649 3740.006 3198.654 3735.341 C 3161.652 3723.007 3190.703 3724.607 3166.453 3724.607 C 3138.585 3710.673 3130.46 3715.609 3123.518 3713.873 C 3115.756 3711.933 3109.64 3705.67 3102.05 3703.14 C 3102.05 3703.14 3080.583 3703.14 3080.583 3703.14 C 3048.382 3703.14 3026.914 3703.14 3026.914 3703.14 C 3011.12 3703.14 3018.71 3700.61 3005.447 3713.873 C 2909.683 3809.637 3023.55 3691.245 2962.512 3767.542 C 2912.034 3830.639 2943.75 3772.864 2919.577 3821.211 C 2896.469 3867.426 2883.434 3890.645 2876.642 3917.814 C 2875.774 3921.285 2877.773 3925.154 2876.642 3928.548 C 2865.908 3960.749 2865.908 4057.353 2865.908 4057.353 C 2865.908 4078.82 2865.908 4132.489 2865.908 4132.489 C 2867.477 4140.334 2874.112 4146.367 2876.642 4153.957 C 2877.773 4157.351 2875.042 4161.49 2876.642 4164.69 C 2900.594 4212.594 2856.218 4176.468 2898.109 4218.359 C 2903.766 4224.016 2912.92 4224.655 2919.577 4229.093 C 2923.787 4231.899 2926.733 4236.249 2930.31 4239.826 C 2953.325 4262.841 2953.75 4265.529 2973.245 4272.028 C 2976.64 4273.159 2980.779 4270.428 2983.979 4272.028 C 2988.505 4274.291 2989.653 4282.761 2994.713 4282.761 C 3023.336 4282.761 3030.492 4282.761 3037.648 4282.761 C 3037.648 4282.761 3080.583 4282.761 3080.583 4282.761 C 3088.344 4280.821 3094.894 4275.606 3102.05 4272.028 C 3133.638 4256.234 3145.214 4254.762 3155.719 4250.56 C 3179.776 4240.937 3191.234 4225.779 3209.388 4207.625 C 3273.61 4143.403 3231.162 4195.971 3241.589 4164.69 C 3244.119 4157.1 3247.885 4149.88 3252.323 4143.223 C 3255.129 4139.013 3260.793 4137.015 3263.056 4132.489 C 3276.99 4104.621 3271.527 4096.343 3273.79 4089.554 C 3275.39 4084.754 3282.924 4083.621 3284.524 4078.82 C 3284.524 4078.82 3284.524 4035.885 3284.524 4035.885 C 3284.524 3989.373 3284.524 3953.593 3284.524 3917.814 C 3284.524 3899.925 3284.524 3892.769 3284.524 3885.613 C 3288.102 3882.035 3294.03 3879.788 3295.258 3874.879 C 3295.258 3874.879 3295.258 3831.944 3295.258 3831.944 C 3295.258 3813.508 3293.657 3782.609 3305.991 3831.944 C 3307.727 3838.887 3305.991 3846.256 3305.991 3853.412 C 3305.991 3871.301 3301.652 3889.725 3305.991 3907.081 C 3367.39 4152.675 3313.096 3967.545 3327.459 4068.087 C 3329.545 4082.691 3336.363 4096.383 3338.192 4111.022 C 3339.968 4125.223 3336.417 4139.755 3338.192 4153.957 C 3352.945 4271.976 3355.378 4304.315 3359.66 4336.43 C 3362.536 4358.003 3368.423 4379.158 3370.394 4400.833 C 3370.394 4400.833 3370.394 4508.17 3370.394 4508.17 C 3390.67 4650.104 3381.127 4737.116 3381.127 4808.715 C 3381.127 4885.443 3388.327 4846.218 3370.394 4873.117 C 3365.956 4879.774 3365.317 4888.927 3359.66 4894.584 C 3332.535 4921.709 3331.897 4930.863 3327.459 4937.519 C 3317.614 4952.286 3310.9 4948.559 3295.258 4958.987 C 3291.047 4961.794 3289.584 4969.721 3284.524 4969.721 C 3238.011 4969.721 3212.966 4969.721 3187.92 4969.721 C 3180.764 4969.721 3172.853 4972.921 3166.453 4969.721 C 3163.252 4968.121 3168.053 4962.187 3166.453 4958.987 C 3164.19 4954.461 3159.297 4951.831 3155.719 4948.253 C 3120.711 4901.108 3132.64 4914.44 3112.784 4894.584 C 3109.206 4891.007 3104.313 4888.376 3102.05 4883.851 C 3100.45 4880.651 3104.58 4875.647 3102.05 4873.117 C 3088.787 4859.853 3093.846 4854.179 3091.317 4851.65 C 3088.787 4849.12 3083.113 4854.179 3080.583 4851.65 C 3077.005 4844.494 3073.427 4837.338 3069.849 4830.182 C 3066.271 4830.182 3061.645 4832.712 3059.115 4830.182 C 3035.118 4806.185 3037.648 4813.775 3037.648 4797.981" fill="none" vector-effect="non-scaling-stroke" stroke-width="1" stroke="rgb(0,0,0)" stroke-linejoin="miter" stroke-linecap="square" stroke-miterlimit="3"/><g><g><path d=" M 4025.152 3831.944 C 4028.73 3828.367 4017.225 3825.421 4014.418 3821.211 C 3990.228 3784.925 3979.75 3754.341 3950.016 3724.607 C 3936.752 3711.343 3931.748 3715.473 3928.548 3713.873 C 3924.022 3711.61 3922.34 3705.402 3917.814 3703.14 C 3894.084 3691.274 3893.175 3692.406 3874.879 3692.406 C 3860.568 3692.406 3866.676 3684.202 3864.146 3681.672 C 3864.146 3681.672 3821.211 3681.672 3821.211 3681.672 C 3792.587 3681.672 3785.432 3681.672 3778.276 3681.672 C 3778.276 3681.672 3735.341 3681.672 3735.341 3681.672 C 3724.607 3681.672 3713.322 3678.278 3703.14 3681.672 C 3670.938 3692.406 3628.003 3713.873 3628.003 3713.873 C 3605.33 3719.542 3605.34 3704.336 3585.068 3724.607 C 3571.805 3737.871 3575.466 3742.68 3574.335 3746.075 C 3567.981 3765.134 3552.867 3795.268 3552.867 3799.743 C 3552.867 3856.99 3552.867 3892.769 3552.867 3928.548 C 3552.867 3971.483 3552.867 3992.95 3552.867 4014.418 C 3552.867 4035.885 3552.867 4089.554 3552.867 4089.554 C 3568.94 4121.7 3581.653 4149.24 3595.802 4153.957 C 3602.591 4156.219 3612.21 4148.897 3617.27 4153.957 C 3630.533 4167.22 3635.343 4163.559 3638.737 4164.69 C 3646.327 4167.22 3652.615 4172.894 3660.205 4175.424 C 3663.599 4176.555 3667.36 4175.424 3670.938 4175.424 C 3674.516 4175.424 3678.472 4173.824 3681.672 4175.424 C 3712.054 4190.615 3735.899 4186.158 3746.075 4186.158 C 3756.808 4186.158 3789.009 4186.158 3789.009 4186.158 C 3804.803 4186.158 3797.213 4188.688 3810.477 4175.424 C 3834.252 4151.649 3856.016 4138.015 3864.146 4121.755 C 3865.746 4118.555 3861.616 4113.552 3864.146 4111.022 C 3883.588 4091.579 3901.612 4079.023 3907.081 4068.087 C 3908.681 4064.886 3903.503 4057.353 3907.081 4057.353 C 3921.392 4057.353 3916.214 4049.819 3917.814 4046.619 C 3920.077 4042.093 3926.285 4040.411 3928.548 4035.885 C 3930.148 4032.685 3927.417 4028.546 3928.548 4025.152 C 3931.078 4017.562 3939.282 4011.685 3939.282 4003.684 C 3939.282 3975.061 3939.282 3957.171 3939.282 3939.282 C 3939.282 3928.548 3936.678 3917.494 3939.282 3907.081 C 3954.751 3845.203 3950.016 3819.688 3950.016 3799.743 C 3950.016 3785.432 3947.486 3780.806 3950.016 3778.276 C 3978.639 3778.276 3946.438 3781.854 3960.749 3767.542 C 3963.279 3765.012 3971.483 3763.964 3971.483 3767.542 C 3971.483 3832.669 3968.283 3765.475 3982.217 3821.211 C 3982.217 3821.211 3982.217 3864.146 3982.217 3864.146 C 3982.217 3893.614 3991.01 3899.319 3992.95 3907.081 C 3992.95 3907.081 3992.95 3950.016 3992.95 3950.016 C 3994.891 3957.777 4003.684 3963.483 4003.684 3971.483 C 4003.684 4017.927 4002.333 4031.832 4014.418 4068.087 C 4016.948 4075.677 4025.152 4081.554 4025.152 4089.554 C 4025.152 4118.803 4044.683 4130.553 4057.353 4143.223 C 4070.617 4156.487 4075.62 4152.356 4078.82 4153.957 C 4083.346 4156.219 4085.028 4162.427 4089.554 4164.69 C 4121.141 4180.484 4075.422 4139.825 4111.022 4175.424 C 4148.973 4213.375 4151.243 4207.625 4164.69 4207.625 C 4199.974 4207.625 4213.118 4191.399 4229.093 4175.424 L 4239.826 4164.69 L 4250.56 4164.69" fill="none" vector-effect="non-scaling-stroke" stroke-width="1" stroke="rgb(0,0,0)" stroke-linejoin="miter" stroke-linecap="square" stroke-miterlimit="3"/></g></g><path d=" M 794.297 1459.788 C 806.284 1463.051 768.341 1457.362 758.333 1450 C 758.333 1450 758.333 1391.667 758.333 1391.667 C 758.333 1383.333 758.333 1375 758.333 1366.667 C 758.333 1333.333 758.333 1316.667 758.333 1300 C 758.333 1297.222 755.556 1291.667 758.333 1291.667 C 772.222 1291.667 764.182 1279.969 766.667 1275 C 799.445 1209.443 724.597 1484.944 783.333 1250 C 784.007 1247.305 781.369 1243.631 783.333 1241.667 C 791.667 1233.333 808.333 1216.667 808.333 1216.667 C 809.576 1214.182 805.849 1209.576 808.333 1208.333 C 813.302 1205.849 821.072 1212.262 825 1208.333 C 843.596 1200 848.758 1201.242 858.333 1191.667 C 860.298 1189.702 856.369 1185.298 858.333 1183.333 C 860.298 1181.369 864.702 1185.298 866.667 1183.333 C 876.964 1173.036 880.849 1176.242 883.333 1175 C 886.847 1173.243 888.889 1169.444 891.667 1166.667 C 891.667 1166.667 916.667 1166.667 916.667 1166.667 C 926.964 1156.369 930.556 1158.333 933.333 1158.333 C 944.444 1158.333 955.556 1158.333 966.667 1158.333 C 988.889 1158.333 994.73 1156.577 1000 1158.333 C 1004.706 1159.902 1022.745 1178.824 1025 1183.333 C 1028.696 1210.846 1046.589 1218.178 1050 1225 C 1050 1225 1066.667 1266.667 1066.667 1266.667 C 1078.727 1290.787 1073.366 1300.162 1075 1308.333 C 1075 1308.333 1091.667 1350 1091.667 1350 C 1091.667 1370.595 1098.758 1371.273 1100 1375 C 1101.757 1380.27 1100 1386.111 1100 1391.667 C 1100 1394.444 1100 1397.222 1100 1400 C 1100 1402.778 1098.758 1405.849 1100 1408.333 C 1110.818 1429.969 1106.986 1436.277 1108.333 1441.667 C 1118.394 1481.908 1112.293 1441.254 1125 1466.667 C 1126.242 1469.151 1123.036 1473.036 1125 1475 C 1135.298 1485.298 1139.182 1482.091 1141.667 1483.333 C 1170.118 1497.559 1115.894 1491.667 1175 1491.667 C 1180.556 1491.667 1186.111 1491.667 1191.667 1491.667 C 1219.102 1491.667 1251.544 1498.456 1266.667 1483.333 C 1286.111 1463.889 1288.398 1460.512 1291.667 1458.333 C 1296.835 1454.888 1303.941 1454.392 1308.333 1450 C 1312.725 1445.608 1312.275 1437.725 1316.667 1433.333 C 1321.059 1428.941 1330.556 1430.556 1333.333 1425 C 1343.208 1405.25 1360.755 1372.579 1366.667 1366.667 C 1369.444 1363.889 1375 1362.262 1375 1358.333 C 1375 1330.849 1383.333 1327.485 1383.333 1316.667 C 1383.333 1313.889 1383.333 1311.111 1383.333 1308.333 C 1383.333 1305.556 1383.333 1302.778 1383.333 1300 C 1383.333 1283.333 1383.333 1275 1383.333 1266.667 C 1383.333 1263.889 1381.369 1260.298 1383.333 1258.333 C 1393.873 1247.794 1391.667 1228.431 1391.667 1225 C 1391.667 1225 1391.667 1208.333 1391.667 1208.333 C 1391.667 1188.889 1391.667 1186.111 1391.667 1183.333 C 1391.667 1175 1391.667 1166.667 1391.667 1158.333 C 1391.667 1155.556 1388.889 1150 1391.667 1150 C 1402.778 1150 1405.849 1148.758 1408.333 1150 C 1443.015 1167.341 1399.425 1149.425 1416.667 1166.667 C 1418.631 1168.631 1423.758 1164.182 1425 1166.667 C 1459.17 1235.007 1434.394 1179.244 1441.667 1208.333 C 1459.007 1277.696 1441.091 1198.274 1458.333 1250 C 1466.667 1275 1483.333 1325 1483.333 1325 C 1489.938 1351.419 1491.445 1374.336 1500 1400 C 1519.302 1457.906 1516.667 1441.216 1516.667 1475 C 1516.667 1483.333 1515.297 1491.78 1516.667 1500 C 1518.111 1508.665 1525 1516.216 1525 1525 C 1525 1567.117 1531.889 1574.669 1533.333 1583.333 C 1534.703 1591.553 1533.333 1600 1533.333 1608.333 C 1533.333 1622.222 1531.8 1636.196 1533.333 1650 C 1534.598 1661.383 1541.667 1671.88 1541.667 1683.333 C 1541.667 1727.778 1541.667 1755.556 1541.667 1783.333 C 1541.667 1832 1544.667 1851.667 1541.667 1866.667 C 1539.944 1875.28 1535.464 1883.145 1533.333 1891.667 C 1525 1925 1508.333 1975 1508.333 1975 C 1504.291 1981.737 1496.381 1985.381 1491.667 1991.667 C 1487.94 1996.636 1487.725 2003.941 1483.333 2008.333 C 1469.444 2022.222 1463.047 2027.048 1458.333 2033.333 C 1454.607 2038.302 1454.392 2045.608 1450 2050 C 1449.94 2050.06 1425 2060.285 1425 2066.667 C 1425 2075.421 1396.738 2105.798 1391.667 2108.333 C 1389.182 2109.576 1385.298 2106.369 1383.333 2108.333 C 1355.457 2136.21 1380.893 2114.702 1350 2125 C 1346.273 2126.242 1345.18 2131.577 1341.667 2133.333 C 1339.182 2134.576 1336.111 2133.333 1333.333 2133.333 C 1300 2133.333 1275 2133.333 1250 2133.333 C 1181.727 2133.333 1197.421 2130.754 1183.333 2116.667 C 1180.556 2113.889 1177.778 2111.111 1175 2108.333 C 1144.988 2078.322 1139.443 2051.664 1133.333 2033.333 C 1114.93 1978.123 1121.046 2002.403 1108.333 1983.333 C 1097.515 1967.107 1100 1968.04 1100 1950 C 1100 1938.889 1101.242 1935.818 1100 1933.333 C 1098.243 1929.82 1093.423 1928.514 1091.667 1925 C 1091.667 1925 1091.667 1900 1091.667 1900 C 1091.667 1877.778 1091.667 1863.889 1091.667 1850 L 1091.667 1841.667 L 1091.667 1833.333" fill="none" vector-effect="non-scaling-stroke" stroke-width="1" stroke="rgb(0,0,0)" stroke-linejoin="miter" stroke-linecap="square" stroke-miterlimit="3"/></g></svg>