<?xml version="1.0" encoding="UTF-8" standalone="no"?><!-- Generator: Gravit.io --><svg xmlns="http://www.w3.org/2000/svg" xmlns:xlink="http://www.w3.org/1999/xlink" style="isolation:isolate" viewBox="0 0 4767.874 6740.787" width="4767.874pt" height="6740.787pt"><defs><clipPath id="_clipPath_iJ4b6FUaGwnMNGudPoy0wRzJ8tGBglUS"><rect width="4767.874" height="6740.787"/></clipPath></defs><g clip-path="url(#_clipPath_iJ4b6FUaGwnMNGudPoy0wRzJ8tGBglUS)"><path d=" M 416.667 1633.333 Q 578.162 1470.752 802.199 1633.333 Q 1026.237 1795.915 1221.367 1561.037 Q 1293.637 2854.673 657.659 2215.082" fill="none" vector-effect="non-scaling-stroke" stroke-width="1" stroke="rgb(0,0,0)" stroke-linejoin="miter" stroke-linecap="square" stroke-miterlimit="3"/><path d=" M 1954.909 1933.228 C 1954.909 1600.785 1510.447 1589.869 1510.447 1933.228 C 1510.447 2309.033 1954.909 2265.671 1954.909 1933.228 Z " fill="rgb(255,255,255)" vector-effect="non-scaling-stroke" stroke-width="1" stroke="rgb(0,0,0)" stroke-linejoin="miter" stroke-linecap="square" stroke-miterlimit="3"/><path d=" M 3299.135 1890.894 C 3299.135 1558.451 2854.673 1547.534 2854.673 1890.894 C 2854.673 2266.699 3299.135 2223.337 3299.135 1890.894 Z " fill="rgb(255,255,255)" vector-effect="non-scaling-stroke" stroke-width="1" stroke="rgb(0,0,0)" stroke-linejoin="miter" stroke-linecap="square" stroke-miterlimit="3"/><path d=" M 2529.457 1897.093 C 2525.844 1640.534 2168.106 1564.65 2164.493 1897.093 C 2160.879 2229.536 2533.071 2153.652 2529.457 1897.093 Z " fill="rgb(255,255,255)" vector-effect="non-scaling-stroke" stroke-width="1" stroke="rgb(0,0,0)" stroke-linejoin="miter" stroke-linecap="square" stroke-miterlimit="3"/><path d=" M 2558.366 1727.258 Q 2522.23 1821.209 2525.844 1922.388 Q 2529.457 2023.566 2634.249 2110.29" fill="rgb(255,255,255)" vector-effect="non-scaling-stroke" stroke-width="1" stroke="rgb(0,0,0)" stroke-linejoin="miter" stroke-linecap="square" stroke-miterlimit="3"/><path d=" M 2236.317 1512.802 Q 2449.424 1399.671 2652.008 1512.802 Q 2854.592 1625.934 3051.914 1462.814" fill="none" vector-effect="non-scaling-stroke" stroke-width="1" stroke="rgb(0,0,0)" stroke-linejoin="miter" stroke-linecap="square" stroke-miterlimit="3"/><path d=" M 740.247 4294.973 Q 1226.034 4464.613 1087.237 3176.892" fill="none" vector-effect="non-scaling-stroke" stroke-width="1" stroke="rgb(0,0,0)" stroke-linejoin="miter" stroke-linecap="square" stroke-miterlimit="3"/><path d=" M 539.763 3207.736 Q 670.849 3045.807 1087.237 3207.736 Q 1503.626 3369.665 1619.29 3038.096" fill="none" vector-effect="non-scaling-stroke" stroke-width="1" stroke="rgb(0,0,0)" stroke-linejoin="miter" stroke-linecap="square" stroke-miterlimit="3"/><path d=" M 909.887 3670.39 Q 1195.19 3716.655 1318.565 3670.39" fill="none" vector-effect="non-scaling-stroke" stroke-width="1" stroke="rgb(0,0,0)" stroke-linejoin="miter" stroke-linecap="square" stroke-miterlimit="3"/><path d=" M 1678.463 4232.645 Q 1747.146 3987.958 1721.39 3807.663 C 1695.634 3627.368 2021.882 3601.611 2021.882 3923.567 Q 2021.882 4245.523 1751.439 4018.008 L 1978.955 4294.973" fill="none" vector-effect="non-scaling-stroke" stroke-width="1" stroke="rgb(0,0,0)" stroke-linejoin="miter" stroke-linecap="square" stroke-miterlimit="3"/><path d=" M 2628.191 4018.008 C 2624.577 3761.448 2266.84 3685.565 2263.226 4018.008 C 2259.612 4350.451 2631.804 4274.567 2628.191 4018.008 Z " fill="rgb(255,255,255)" vector-effect="non-scaling-stroke" stroke-width="1" stroke="rgb(0,0,0)" stroke-linejoin="miter" stroke-linecap="square" stroke-miterlimit="3"/><path d=" M 2657.099 3848.172 Q 2620.964 3942.124 2624.577 4043.302 Q 2628.191 4144.48 2732.982 4231.205" fill="rgb(255,255,255)" vector-effect="non-scaling-stroke" stroke-width="1" stroke="rgb(0,0,0)" stroke-linejoin="miter" stroke-linecap="square" stroke-miterlimit="3"/><path d=" M 4053.381 4018.008 C 4049.768 3761.448 3692.03 3685.565 3688.417 4018.008 C 3684.803 4350.451 4056.995 4274.567 4053.381 4018.008 Z " fill="rgb(255,255,255)" vector-effect="non-scaling-stroke" stroke-width="1" stroke="rgb(0,0,0)" stroke-linejoin="miter" stroke-linecap="square" stroke-miterlimit="3"/><path d=" M 4082.289 3848.172 Q 4046.154 3942.124 4049.768 4043.302 Q 4053.381 4144.48 4158.173 4231.205" fill="rgb(255,255,255)" vector-effect="non-scaling-stroke" stroke-width="1" stroke="rgb(0,0,0)" stroke-linejoin="miter" stroke-linecap="square" stroke-miterlimit="3"/><path d=" M 3412.731 4043.302 C 3408.438 3764.736 2992.042 3644.539 2970.578 4018.008 C 2949.115 4391.476 3417.024 4321.869 3412.731 4043.302 Z " fill="rgb(255,255,255)" vector-effect="non-scaling-stroke" stroke-width="1" stroke="rgb(0,0,0)" stroke-linejoin="miter" stroke-linecap="square" stroke-miterlimit="3"/><path d=" M 3417.024 4018.008 Q 3541.061 5202.805 3051.914 4649.041" fill="none" vector-effect="non-scaling-stroke" stroke-width="1" stroke="rgb(0,0,0)" stroke-linejoin="miter" stroke-linecap="square" stroke-miterlimit="3"/></g></svg>